<?xml version="1.0" encoding="UTF-8"?> <svg xmlns="http://www.w3.org/2000/svg" width="112" height="58" viewBox="0 0 112 58" fill="none"><path d="M24.4036 51.6127C24.2809 51.8406 24.079 52.0214 23.7979 52.1511C23.6633 52.2218 23.4059 52.2886 23.0258 52.3476C22.6497 52.4104 22.333 52.4497 22.0717 52.4733V53.4911H30.8767V52.4733C30.6827 52.4497 30.4134 52.4026 30.069 52.3279C29.7206 52.2611 29.4712 52.1864 29.3168 52.1118C29.0238 51.9585 28.8219 51.7699 28.7269 51.5577C28.6319 51.3455 28.5883 51.0822 28.5883 50.7639V37.6544C28.5883 37.3597 28.6319 37.0925 28.7269 36.8488C28.8219 36.6052 29.0238 36.4244 29.3168 36.3183C29.5622 36.2279 29.8156 36.1572 30.0848 36.1061C30.3541 36.059 30.6114 36.0236 30.8489 36V34.9861H23.6474C23.6395 35.1394 23.5841 35.4695 23.4732 35.9764C23.3663 36.4834 23.2594 36.9156 23.1446 37.2811L19.7675 47.2075L15.757 34.9861H8.28233V36C8.61093 36.0275 8.93557 36.0825 9.26022 36.1572C9.57694 36.2319 9.88575 36.4087 10.1906 36.6798C10.44 36.896 10.6182 37.1907 10.7409 37.5601C10.8636 37.9256 10.927 38.3893 10.927 38.9512V48.1192C10.927 49.1881 10.8755 50.0133 10.7647 50.5871C10.6578 51.1726 10.4519 51.5813 10.147 51.8249C9.86991 52.0489 9.52151 52.21 9.08998 52.2965C8.6624 52.3908 8.34963 52.4458 8.15564 52.4733V53.4911H15.1394V52.4733C14.9415 52.4497 14.597 52.3515 14.1061 52.1904C13.6112 52.0253 13.2747 51.8524 13.0767 51.6677C12.7996 51.4084 12.5977 50.9957 12.4671 50.4338C12.3404 49.8758 12.277 49.0545 12.277 47.9738V36.7191L16.3905 49.4396C16.5607 49.9544 16.7785 50.6303 17.0516 51.483C17.3208 52.3358 17.4911 52.9056 17.5624 53.1925H19.0034L24.5976 36.9274V50.76C24.5976 51.1019 24.5303 51.3927 24.4076 51.6166" fill="white"></path><path d="M41.5067 36.8488C41.6096 36.613 41.8076 36.4323 42.1045 36.3222C42.342 36.2318 42.631 36.165 42.9755 36.1179C43.3199 36.0668 43.605 36.0354 43.8306 36.0039V34.9901H34.8238V36.0039C35.0811 36.0393 35.3899 36.0982 35.7462 36.1925C36.1065 36.2829 36.3797 36.3733 36.5578 36.4637C36.8548 36.6012 37.0488 36.782 37.1438 37.0099C37.2388 37.2339 37.2903 37.4933 37.2903 37.7919V50.9132C37.2903 51.2433 37.2388 51.5184 37.1359 51.7227C37.0329 51.9349 36.8389 52.1078 36.5539 52.2414C36.4074 52.3082 36.1263 52.3633 35.7264 52.3986C35.3226 52.434 35.0217 52.4576 34.8198 52.4733V53.4911H43.8267V52.4733C43.5812 52.4576 43.2645 52.4104 42.8923 52.3436C42.5202 52.2611 42.2589 52.1904 42.1005 52.1118C41.8115 51.9742 41.6136 51.7895 41.5106 51.5695C41.4077 51.3494 41.3523 51.0782 41.3523 50.7639V37.6544C41.3523 37.3518 41.4037 37.0807 41.4987 36.8449" fill="white"></path><path d="M61.5435 53.6011H63.5864V40.3737C63.5864 39.2695 63.6418 38.4325 63.7606 37.8627C63.8794 37.2968 64.0773 36.892 64.3624 36.6602C64.6831 36.389 65.0394 36.22 65.4393 36.1532C65.8352 36.0825 66.14 36.0354 66.3578 36.0039V34.9901H59.3819V36.0039C59.6511 36.0629 59.9995 36.1572 60.435 36.2986C60.8705 36.448 61.1951 36.613 61.4169 36.8174C61.7019 37.0807 61.9078 37.4776 62.0384 38.0238C62.1651 38.5661 62.2324 39.3913 62.2324 40.5034V47.5101L53.3483 34.9901H47.2316V36.0314C47.671 36.1257 48.0709 36.2593 48.4114 36.4244C48.7598 36.5973 49.0646 36.8252 49.3338 37.1199C49.5912 37.395 49.7733 37.733 49.8841 38.1181C50.0069 38.5032 50.0663 38.9158 50.0663 39.352V48.1192C50.0663 49.3217 50.0108 50.1744 49.9 50.6814C49.7891 51.1844 49.5872 51.5695 49.2863 51.821C49.025 52.0292 48.7043 52.1864 48.3163 52.2807C47.9323 52.379 47.5918 52.4419 47.291 52.4694V53.4872H54.2747V52.4694C54.0134 52.4183 53.6532 52.3161 53.2018 52.1707C52.7505 52.0214 52.4179 51.8524 52.216 51.6598C51.931 51.4005 51.7291 50.9879 51.6024 50.4259C51.4796 49.8679 51.4163 49.0505 51.4163 47.9659V39.2852L61.5356 53.5933L61.5435 53.6011Z" fill="white"></path><path d="M71.9519 51.6638C71.8569 51.876 71.6589 52.0489 71.366 52.1904C71.2234 52.2611 70.9621 52.3201 70.59 52.3751C70.2218 52.4262 69.9328 52.4615 69.723 52.4772V53.495H84.9614L85.2702 47.7341H84.4308C84.2844 48.1624 83.9835 48.8226 83.5282 49.695C83.065 50.5713 82.6572 51.2197 82.293 51.6481C82.1544 51.8131 81.9485 51.9389 81.6674 52.0293C81.3903 52.1118 81.0934 52.1786 80.7727 52.2257C80.4876 52.265 80.159 52.2965 79.7908 52.3004C79.4147 52.3122 79.094 52.3161 78.8248 52.3161C78.2508 52.3161 77.7994 52.2926 77.4669 52.2415C77.1343 52.1865 76.873 52.0764 76.683 51.9153C76.4811 51.7424 76.3465 51.4909 76.2792 51.1647C76.2 50.8386 76.1683 50.3984 76.1683 49.8404V44.5039H77.8351C78.2903 44.5039 78.6863 44.5668 79.0267 44.6807C79.3672 44.7986 79.6641 45.0147 79.9215 45.3291C80.0917 45.5374 80.2659 45.9186 80.452 46.4687C80.6381 47.0228 80.7608 47.4826 80.8043 47.8441H81.6753V40.1262H80.8043C80.7529 40.5035 80.6341 40.9436 80.452 41.4466C80.2738 41.9496 80.0957 42.2993 79.9215 42.4997C79.6364 42.822 79.3276 43.046 78.9832 43.1521C78.6348 43.27 78.2508 43.325 77.8351 43.325H76.1683V36.1768H78.5239C78.7931 36.1768 79.1297 36.1768 79.5375 36.1965C79.9492 36.2083 80.2699 36.2437 80.4955 36.3065C81.034 36.4401 81.5645 36.8645 82.1108 37.5837C82.6493 38.3107 83.0333 39.018 83.2471 39.7254H84.122V35.0058H69.719V36.0197C69.9011 36.0511 70.1743 36.1061 70.5306 36.1886C70.8909 36.2751 71.168 36.3733 71.362 36.4794C71.6906 36.6445 71.8925 36.8292 71.9717 37.0335C72.0548 37.2379 72.0984 37.4933 72.0984 37.8077V50.8661C72.0984 51.1962 72.0469 51.4712 71.9479 51.6835" fill="white"></path><path d="M97.9668 35.7603C99.1189 35.7603 100.101 36.2397 100.897 37.2064C101.696 38.1731 102.385 39.6821 102.959 41.7452H103.965L103.862 34.9901H102.864L102.156 35.7053C101.645 35.3909 101.019 35.1119 100.283 34.8604C99.5346 34.6167 98.7151 34.4871 97.8203 34.4871C96.5732 34.4871 95.4014 34.7346 94.3126 35.2141C93.2199 35.6974 92.2856 36.3772 91.5056 37.2575C90.7099 38.1495 90.1002 39.2106 89.6607 40.4327C89.2173 41.6509 88.9956 42.9831 88.9956 44.4174C88.9956 45.8518 89.2173 47.1879 89.6489 48.3903C90.0843 49.5928 90.6822 50.6028 91.4383 51.4162C92.2104 52.2532 93.1091 52.8899 94.1543 53.33C95.1915 53.7701 96.3001 53.9862 97.4957 53.9862C98.4855 53.9862 99.3446 53.8566 100.077 53.5854C100.809 53.3143 101.475 52.9409 102.076 52.4615C102.627 52.0253 103.11 51.5066 103.529 50.9014C103.949 50.2963 104.329 49.6125 104.654 48.8462L103.672 48.1703C102.987 49.5103 102.223 50.5085 101.387 51.1726C100.552 51.8288 99.598 52.1589 98.529 52.1589C97.8005 52.1589 97.1315 52.0057 96.5297 51.6992C95.92 51.3887 95.4014 50.9093 94.954 50.2412C94.5383 49.6086 94.2097 48.7755 93.9523 47.7302C93.699 46.6927 93.5644 45.4431 93.5644 43.9734C93.5644 41.3719 93.9365 39.352 94.6927 37.9098C95.437 36.4755 96.5336 35.7564 97.9629 35.7564" fill="white"></path><path d="M51.4399 14.5045C51.4399 14.6499 53.1344 14.8661 53.1344 14.8661L53.1423 15.4594C53.1423 15.4594 51.5666 15.6677 51.5429 15.8092C51.5152 15.9546 53.3245 16.2375 53.3245 16.2375L53.3482 16.7523C53.3482 16.7523 51.6894 17.0077 51.6735 17.1413C51.6656 17.2632 53.4591 17.5343 53.4591 17.5343L53.4907 18.0963C53.4907 18.0963 51.8517 18.3242 51.8438 18.4224C51.824 18.5128 53.6095 18.8468 53.6095 18.8468V19.4088C53.6095 19.4088 51.9586 19.6406 51.9586 19.7507C51.9586 19.8528 53.7164 20.179 53.7164 20.179V20.7252C53.7164 20.7252 52.1486 20.9414 52.1367 21.0553C52.1288 21.1732 53.8708 21.4915 53.8708 21.4915L53.851 22.0338C53.851 22.0338 52.2872 22.3325 52.2634 22.3993C52.2397 22.47 53.9856 22.8198 53.9856 22.8198L53.9777 23.3739C53.9777 23.3739 52.4257 23.6018 52.4139 23.6843C52.398 23.7629 54.0727 24.0812 54.0727 24.0812L54.1044 24.6471C54.1044 24.6471 53.2809 24.8829 53.2809 24.9182C53.2809 24.9575 54.3815 25.4369 54.5003 25.6099C54.623 25.7906 54.7972 26.1482 54.7972 26.1482C54.7972 26.1482 55.4861 26.5884 55.5455 26.5884C55.5969 26.5884 57.4458 26.6119 57.4458 26.6119C57.4458 26.6119 58.0714 26.2111 58.1149 26.1757C58.1664 26.1404 58.4752 25.492 58.7563 25.4016L58.7682 24.7964C58.7682 24.7964 60.4151 24.4977 60.4151 24.4309C60.4151 24.3641 58.8988 24.093 58.8988 24.093L58.8711 23.4917C58.8711 23.4917 60.5497 23.2088 60.5497 23.0791C60.5497 22.9573 59.0136 22.7097 59.0136 22.7097L59.0057 22.1439C59.0057 22.1439 60.7041 21.8216 60.712 21.7509C60.7279 21.6802 59.1363 21.3736 59.1363 21.3736L59.1165 20.8588C59.1165 20.8588 60.8744 20.5327 60.8744 20.458C60.8744 20.3794 59.2393 20.0533 59.2393 20.0533L59.263 19.5031C59.263 19.5031 61.0248 19.1927 61.0248 19.1376C61.0248 19.0748 59.3778 18.784 59.3778 18.784V18.1827C59.3778 18.1827 61.1436 17.9116 61.1436 17.8212C61.1436 17.7269 59.5164 17.4479 59.5164 17.4479L59.5085 16.8584C59.5085 16.8584 61.298 16.544 61.298 16.4615C61.298 16.3947 59.7381 16.1157 59.7381 16.1157L59.7144 15.5537C59.7144 15.5537 61.5118 15.2629 61.5039 15.1922C61.492 15.1254 59.9044 14.8071 59.9044 14.8071L59.8688 14.2176C59.8688 14.2176 61.4603 13.9976 61.4643 13.9151C61.4761 13.8365 60.0548 13.5024 60.0548 13.5024L60.1221 11.7891L59.75 11.4354H59.1403C59.1838 11.2979 59.5441 10.1818 60.0865 9.60811C60.6487 8.99115 60.4824 8.25236 60.4824 8.25236L59.8094 7.83581L59.0849 0.286856C59.0849 0.286856 59.0057 -1.19649e-05 58.689 -1.19649e-05H53.8787C53.8787 -1.19649e-05 53.5264 -0.0118011 53.4591 0.330083C53.4076 0.671967 52.7504 7.76901 52.7504 7.76901C52.7504 7.76901 52.1328 8.18163 52.0575 8.26022C51.9902 8.34667 52.0971 8.91255 52.1803 9.06974C52.2595 9.24265 52.8098 10.0915 52.9642 10.3233C53.1067 10.5473 53.4195 11.294 53.4472 11.4708H53.0988L52.7346 11.793L52.8573 13.023L52.2951 13.3767L52.8969 13.581V14.1705C52.8969 14.1705 51.4399 14.367 51.4399 14.5045Z" fill="white"></path><path d="M111.97 56.3165H0.969971V57.5701H111.97V56.3165Z" fill="white"></path><path d="M68.9509 29.626C69.7744 29.0012 71.0136 28.8047 72.0548 28.5965C72.3517 28.5061 72.6724 28.5061 72.9772 28.5061C73.9155 28.4078 74.9449 28.5139 75.7644 28.6083C75.9782 28.8283 75.9782 29.0287 75.7644 29.2252C75.0399 29.9483 74.0066 30.2469 72.9772 30.3413C71.6312 30.5535 70.0753 30.1408 68.9469 29.626M64.9443 30.9268C65.0275 30.8993 65.1106 30.8718 65.1977 30.8443C65.36 30.8521 65.5263 30.8521 65.6649 30.8089C66.0054 30.7578 66.3419 30.6124 66.6546 30.4081C68.0601 30.2194 69.2478 30.7971 70.483 30.9268H64.9443ZM64.3148 29.5082C64.204 29.5828 64.101 29.6536 63.9981 29.7321C63.7685 29.6025 63.5587 29.4571 63.3647 29.296C63.8398 28.6397 64.5445 28.4314 65.1383 28.2153C65.2769 28.1406 65.3996 28.1249 65.5382 28.117C65.2096 28.5611 64.7899 28.9816 64.4257 29.4021C64.4257 29.4021 64.3188 29.4021 64.3188 29.5082M62.462 30.5181L62.557 30.1133C62.557 30.1133 62.557 30.1055 62.5649 30.1055C62.7708 30.129 62.9688 30.1959 63.1588 30.2784C62.941 30.3923 62.7193 30.4867 62.462 30.5181ZM64.6078 23.873C64.8335 22.8041 65.1937 21.7077 65.6688 20.7292C66.0172 20.0887 66.3696 19.5464 66.7299 19.0001H66.8486C66.6705 20.6231 66.2548 22.25 65.6688 23.6568C65.3679 24.3092 65.0156 25.0754 64.6078 25.6099C64.3663 25.2877 64.6078 24.541 64.6078 23.873ZM67.8305 23.8022H67.8186L65.4748 26.0422L65.6688 25.716L66.7299 23.9869C67.0387 23.5036 67.4464 23.6804 67.8305 23.7983M65.6688 27.3429C65.558 27.3429 65.4352 27.4569 65.3679 27.4569C65.3165 27.4569 65.2531 27.4568 65.1858 27.4372C65.4748 27.2211 65.7718 27.001 66.0727 26.7495C66.0727 26.9617 66.0212 27.1621 65.9539 27.3547C65.8589 27.3468 65.7678 27.3429 65.6688 27.3429ZM67.2525 28.2231C67.3752 28.4471 67.3752 28.6476 67.2525 28.8755C67.1772 29.0091 67.0941 29.1152 67.011 29.2252C66.5161 29.3706 66.0331 29.8854 65.4471 29.5082C65.8034 29.0444 66.1598 28.5729 66.5002 28.0895C66.7655 28.121 67.0268 28.1721 67.2525 28.2271M71.1046 24.5253C71.5282 23.4996 72.1538 22.4818 72.9772 21.5662C73.5988 20.9453 74.2164 20.4345 74.838 19.9158H75.0399C74.7351 21.4601 74.0066 22.9927 72.9772 24.3092C72.4586 24.934 71.8331 25.6413 71.1046 26.164C70.7008 25.8378 71.1046 25.1383 71.1046 24.5253ZM60.7161 29.1781C60.3597 29.6143 60.0628 30.1526 59.6511 30.2548L59.7223 29.8265C60.0153 29.072 60.3597 28.4275 60.7161 27.7673C61.0169 27.2211 61.3614 26.7927 61.7217 26.2544C61.7217 27.339 61.1832 28.2035 60.7754 29.072C60.7754 29.072 60.7161 29.072 60.7161 29.1741M58.6019 30.2705C58.6534 30.1566 58.7642 30.0426 58.8989 29.9326C58.8038 30.0622 58.7049 30.1723 58.6019 30.2705ZM51.9705 29.2567C51.7448 28.8362 51.5667 28.3921 51.3291 27.9638C51.0916 27.3154 50.7551 26.6709 50.6878 25.7946C51.0916 26.4391 51.5667 27.1071 51.9705 27.8537C52.4416 28.6043 52.9088 29.3706 53.3205 30.243C52.79 30.4591 52.3743 29.9168 51.9705 29.2567ZM50.0306 30.2627C50.4344 30.1408 50.8303 30.1448 51.2183 30.5024C50.7867 30.5495 50.3948 30.4513 50.0306 30.2627ZM49.2942 29.7675C49.215 29.7086 49.1279 29.6378 49.0527 29.5671C48.7676 29.2763 48.5182 28.9894 48.2688 28.7026C48.6766 28.8715 49.0646 29.1113 49.405 29.3588L49.4644 29.5828C49.413 29.6496 49.3536 29.7086 49.2981 29.7636M43.7317 30.9268C44.674 30.7421 45.6321 30.4041 46.5466 30.4316C46.8039 30.6242 47.0732 30.7735 47.3582 30.856H48.0748C48.1461 30.8796 48.2134 30.8993 48.2846 30.9268H43.7317ZM41.0158 30.4513C40.509 30.3412 40.1052 30.1408 39.6935 29.9286C39.2897 29.6378 38.577 29.63 38.577 29.0248C39.3886 28.8205 40.1963 28.7222 41.0118 28.8205C42.3342 28.8283 43.5496 29.2409 44.571 29.6418L44.6661 29.854C43.6486 30.5613 42.3302 30.6517 41.0118 30.4513M41.9699 23.0045C42.1837 23.2324 42.4015 23.4446 42.6271 23.6293C43.2685 24.0694 43.9732 24.2777 44.7294 24.2777C44.9273 24.1638 45.1095 24.1245 45.2916 24.1087C45.248 24.1441 45.2045 24.1952 45.1847 24.2777C45.3272 25.6099 46.0003 26.7023 46.705 27.7869C46.028 27.8813 45.3272 28.0699 44.674 28.066C44.377 27.8577 44.1078 27.6062 43.8742 27.3193C43.2566 25.8653 42.8132 24.3524 41.9779 23.0045M41.0158 24.7768C40.9208 24.5764 40.8179 24.3681 40.608 24.2659C40.2992 23.5625 39.8004 22.8552 39.9073 21.9513C40.2992 22.2461 40.7149 22.6508 41.0158 23.0517C41.7284 23.8612 42.2391 24.8868 42.2391 25.9989C41.6295 25.881 41.3246 25.2837 41.0158 24.7729M41.8155 21.5898C42.0531 21.802 42.3381 21.916 42.6271 22.0142C43.2685 22.3443 43.9732 22.6705 44.6185 23.0988C44.5552 23.6372 44.1553 23.5389 43.9772 23.6372C43.4546 23.6372 43.0428 23.425 42.6311 22.9927C42.2787 22.6705 41.9937 22.3443 41.772 21.802L41.8195 21.5898H41.8155ZM42.2748 20.6231C42.4015 20.7253 42.5163 20.7253 42.6271 20.8196C43.4546 21.2636 44.4958 21.2636 45.0184 22.5565C44.2068 22.4504 43.3833 22.0103 42.6271 21.468C42.4609 21.3658 42.2748 21.1615 42.1125 21.0396L42.2787 20.6192L42.2748 20.6231ZM47.3622 22.3443C47.7739 23.2167 48.055 24.3013 48.055 25.4802C47.7106 25.3584 47.5482 24.7178 47.3622 24.1834C47.2988 23.9633 47.2394 23.7433 47.1325 23.645C46.9465 22.8866 46.6535 22.1282 46.7168 21.1654C46.9425 21.4876 47.1761 21.916 47.3582 22.3443M47.6235 29.2567L47.5205 29.3549C47.0059 29.1938 46.4714 29.013 45.9567 28.7929C45.9567 28.7615 45.9488 28.7419 45.9488 28.7065C46.3447 28.5139 46.7446 28.4196 47.1365 28.4668C47.3067 28.7222 47.4651 28.9894 47.6195 29.2527M48.2292 27.6298C48.2292 27.842 48.1065 27.842 48.055 27.842C47.8808 27.842 47.6947 27.7909 47.5166 27.7594C47.1919 27.3193 46.8831 26.8635 46.8198 26.3054C47.2276 26.667 47.667 27.0246 48.1025 27.3979C48.1461 27.4765 48.1857 27.5512 48.2292 27.6298ZM32.8206 22.2382C32.5078 22.1478 32.2069 21.9395 31.9139 21.8334L32.2069 21.4365C32.4088 21.523 32.6186 21.523 32.8206 21.637C34.23 22.0378 36.0472 22.0378 36.9578 23.2481C35.5444 23.146 34.131 22.7333 32.8206 22.2382ZM35.1406 24.2541C34.23 24.2541 33.5253 24.0498 32.8206 23.649C32.2069 23.3503 31.7041 23.0477 31.3042 22.5408L31.3993 22.3404C31.807 22.5408 32.3138 22.639 32.8206 22.7333C33.9251 23.0477 35.1406 23.3503 36.257 23.7551C36.1462 24.2541 35.4494 24.1638 35.1406 24.2541ZM33.4263 17.4833L32.8206 16.2808L32.005 14.7718V14.5714C32.3138 14.7718 32.6186 14.9761 32.8206 15.2826C33.3234 15.8878 33.5292 16.6895 33.6203 17.4872H33.4303L33.4263 17.4833ZM32.8206 18.1985C31.9139 17.6129 31.3993 16.4891 31.0034 15.4752L30.9004 14.5674C31.91 15.5774 32.4049 16.8899 32.8166 18.0963V18.1945L32.8206 18.1985ZM27.6738 15.4752C26.9572 15.1805 26.3633 14.7796 25.6626 14.2766C24.9539 13.6715 24.2492 12.9641 23.5485 12.3668V12.1664C24.2532 12.1664 25.0569 12.4572 25.6626 12.858C26.7672 13.361 27.5709 14.2727 27.8836 15.2787L27.6738 15.4713V15.4752ZM22.2459 14.7875C23.3545 14.5753 24.657 14.481 25.6666 14.98C25.9635 15.0822 26.1694 15.2905 26.3673 15.4791C26.4702 15.8878 26.0743 15.6795 25.7734 15.7817H25.6626C24.4551 15.4791 23.2476 15.2905 22.242 14.7875M25.6666 17.2003C25.4646 17.2003 25.2667 17.2003 25.1598 17.2986C23.1486 17.4872 21.0463 17.0942 19.5419 15.6874C19.9378 15.2866 20.5317 15.483 20.9434 15.1883C22.436 15.483 24.1502 15.5852 25.6626 16.1825C26.0704 16.2886 26.3633 16.3869 26.6603 16.5834C26.4663 16.8899 26.0704 17.0942 25.6626 17.1964M17.3248 11.8756C16.731 11.4748 16.1252 10.7792 15.5314 10.3705L15.6264 10.0601C16.2321 10.2644 16.727 10.5749 17.3209 10.8696C17.9306 11.2625 18.5284 11.7773 19.0312 12.2803C18.4373 12.4768 17.8355 12.2843 17.3209 11.8756M42.9874 16.4183L42.6271 15.1254L42.1679 13.5143V13.2903C42.3381 13.5143 42.5202 13.7108 42.6271 14.0448C42.9241 14.6775 43.0428 15.5459 43.0983 16.4183H42.9874ZM42.6271 17.1728C42.1125 16.5205 41.8155 15.3455 41.5938 14.2688L41.5265 13.2903C42.1125 14.367 42.4015 15.766 42.6271 17.0628V17.1728ZM39.6658 14.2688C39.2619 13.9544 38.9175 13.5143 38.5097 12.9759C38.1019 12.3275 37.7021 11.5848 37.2903 10.9325V10.7163C37.7021 10.7163 38.1534 11.0386 38.5097 11.4551C39.1471 12.0131 39.6143 12.972 39.7845 14.0408L39.6658 14.2648V14.2688ZM36.5302 13.5143C37.1755 13.306 37.9277 13.196 38.5097 13.7265C38.6839 13.8404 38.7987 14.0448 38.9215 14.2688C38.9729 14.6892 38.7393 14.481 38.5731 14.5831H38.5137C37.8169 14.2688 37.1201 14.0526 36.5342 13.5143M38.5097 16.0882C38.3909 16.0882 38.2761 16.0882 38.2128 16.1943C37.0567 16.4222 35.8453 15.986 34.9703 14.477C35.196 14.0487 35.5483 14.2648 35.7819 13.9505C36.649 14.2648 37.6387 14.3709 38.5097 15.0115C38.7354 15.1254 38.9215 15.2394 39.0917 15.4438C38.969 15.766 38.7354 15.986 38.5097 16.0882ZM33.6955 10.4059C33.355 9.97361 32.9948 9.23875 32.6582 8.79077L32.7137 8.46853C33.0621 8.69252 33.355 8.99904 33.6955 9.32913C34.0439 9.75747 34.3963 10.2998 34.6853 10.8224C34.329 11.0503 33.9845 10.8342 33.6955 10.4059ZM68.4362 22.474C69.0934 21.9356 69.7387 21.4916 70.4395 21.0593C70.7404 20.9532 71.0452 20.7371 71.3303 20.6231C71.1046 21.1733 70.8037 21.6055 70.4395 21.9356C69.8615 22.6941 69.1449 23.0124 68.4362 22.8945C68.3808 22.8041 68.3808 22.474 68.4362 22.474ZM70.4434 19.6485C70.6929 19.6485 70.9225 19.6485 71.1561 19.7625C70.9819 20.1987 70.7443 20.4109 70.4434 20.6231C69.8654 21.1733 69.0974 21.3894 68.4402 21.6055C68.9746 20.5131 69.7427 19.7625 70.4434 19.6485ZM70.4434 12.2646C70.6295 11.9385 70.8631 11.7184 71.1086 11.5062C71.1086 12.4768 70.7443 13.2392 70.4434 14.1116C70.392 14.3238 70.3326 14.5399 70.2732 14.7718C70.2138 15.0861 70.0911 15.5145 69.8615 15.6245C69.8021 14.4377 70.0357 13.2392 70.4395 12.2686M71.457 13.6715C71.1561 14.4299 70.8631 15.4045 70.4434 15.9546L70.392 16.0686C70.392 15.9546 70.4434 15.7385 70.4434 15.5106C70.7443 14.1077 71.1086 12.7008 71.6945 11.6162C71.8766 12.2646 71.6351 13.027 71.457 13.6715ZM74.3035 10.6377C74.5965 10.4098 74.8895 10.1897 75.2537 10.0758H75.4239L75.3685 10.3941C74.9528 10.956 74.5965 11.4944 74.3035 12.0367C73.9472 12.7047 73.5315 13.1331 73.1198 13.2392C73.2425 12.1546 73.7097 11.2861 74.3035 10.6417M76.4968 12.693C75.8436 13.2313 75.0122 13.2313 74.3035 13.5654C74.1808 13.5654 74.1293 13.6715 74.0026 13.6715C73.9472 13.6715 73.8284 13.4553 73.9472 13.2313C74.066 13.1292 74.1808 13.027 74.3035 13.027C74.9568 12.3589 75.7842 12.2489 76.4968 12.693ZM77.9894 13.4396C77.4431 14.4181 76.6156 14.7561 75.903 15.3023C75.3685 15.5106 74.7786 15.5106 74.3035 15.1922C74.1293 15.0783 73.9472 14.9722 73.773 14.76C73.8324 14.3199 74.066 14.2138 74.3035 14.1037C74.359 13.9976 74.4777 13.9976 74.545 13.9033C75.6061 13.6636 76.8532 13.1213 77.9854 13.4435M79.3513 8.54319C79.5809 8.43316 79.8224 8.22096 80.0006 8.09914C80.1788 8.09914 80.4163 7.67866 80.4717 8.09914C80.2461 8.87329 79.8224 9.52562 79.3513 9.85178C79.0504 10.064 78.7495 10.1819 78.4526 10.1858C78.3972 10.064 78.2745 10.064 78.2151 9.96575C78.508 9.31342 78.9277 8.87329 79.3513 8.54319ZM77.8469 23.1931C78.9752 22.6901 80.1194 22.2775 81.3744 21.8767C81.901 21.7745 82.4117 21.5623 82.9303 21.4562C82.5106 21.9788 81.992 22.3718 81.3744 22.6901C80.3371 23.4014 79.09 23.7118 77.8469 23.5979C77.736 23.4957 77.736 23.1892 77.8469 23.1892M81.3744 20.5406C81.7941 20.5406 82.2098 20.5406 82.6175 20.6388C82.3008 21.0396 81.901 21.2676 81.3744 21.4601C80.3371 21.9828 78.9792 22.1793 77.8469 22.3757C78.7654 21.358 80.1194 20.6349 81.3744 20.5406ZM81.3744 13.5732C81.6792 13.2746 82.0989 13.0624 82.5146 12.858C82.5146 13.7815 81.901 14.4849 81.3744 15.318C81.2715 15.5223 81.1606 15.7306 81.0537 15.935C80.9587 16.2375 80.737 16.6541 80.3371 16.7523C80.2302 15.6206 80.6499 14.4888 81.3744 13.5732ZM83.1401 14.9172C82.6175 15.6206 82.0989 16.5401 81.3744 17.051L81.2715 17.1532C81.2715 17.051 81.3744 16.8545 81.3744 16.6541C81.901 15.318 82.5146 13.9858 83.5558 12.9602C83.8686 13.5732 83.4489 14.2923 83.1401 14.9132M88.1365 12.0328C88.6591 11.8206 89.1856 11.6162 89.8151 11.5023H90.116L90.017 11.8206C89.2925 12.3275 88.663 12.8344 88.1404 13.3453C87.5188 13.9819 86.7943 14.3867 86.054 14.4849C86.2718 13.475 87.1031 12.634 88.1404 12.0328M92.0005 13.978C90.8563 14.481 89.3915 14.481 88.1365 14.7914C87.9346 14.7914 87.8316 14.9015 87.6178 14.9015C87.5149 14.9015 87.3051 14.701 87.5149 14.4888C87.7208 14.3906 87.9346 14.2923 88.1365 14.2923C89.2885 13.6715 90.7494 13.5654 92.0005 13.978ZM94.6135 14.6775C93.6752 15.6009 92.2024 15.9232 90.9593 16.434C90.0131 16.6462 88.9718 16.6462 88.1365 16.3319C87.8316 16.2376 87.5149 16.1314 87.2021 15.9192C87.3051 15.5066 87.7208 15.4005 88.1365 15.3141C88.2354 15.204 88.4571 15.204 88.5561 15.1019C90.4327 14.8936 92.626 14.3788 94.6135 14.6735M97.0245 10.0522C97.4482 9.9461 97.8678 9.74175 98.1845 9.64351C98.4973 9.64351 98.9209 9.22303 99.0278 9.64351C98.6082 10.3548 97.8678 10.9796 97.0285 11.294C96.5178 11.4944 95.9793 11.6005 95.4607 11.6005C95.3617 11.4944 95.144 11.4944 95.0411 11.3962C95.5676 10.7792 96.3 10.3744 97.0285 10.0561M111.97 30.9268H73.8364C75.7525 30.5142 77.4074 29.3352 78.6664 27.9127L78.5793 27.7005C76.7146 28.117 74.9489 27.7987 72.9812 27.7948C72.7753 27.7948 72.5695 27.893 72.4626 27.893C72.1577 27.893 71.6351 27.893 71.6351 27.4922L72.9812 26.2583L74.842 24.6275C75.5704 24.0223 76.5998 24.5292 77.4391 24.5292C78.9792 24.7336 80.2342 24.2306 81.3744 23.6175C83.1401 22.5958 84.5971 21.1693 86.3668 20.4502C86.5687 20.238 86.7904 20.0336 86.5687 19.9158C84.9098 19.7311 83.0372 19.7311 81.3744 19.8175C81.2715 19.8175 81.0537 19.8175 80.9587 19.9158L80.547 19.7311C80.8597 19.4206 81.0537 19.1102 81.3744 18.7997C82.2098 18.1788 83.1401 17.6719 84.0745 17.1571C85.2226 15.9389 86.6835 16.7563 88.1365 17.0549H88.6591C91.8976 17.4675 94.4076 15.8171 97.0245 14.4849C97.1354 14.4849 97.1354 14.3788 97.2383 14.3788C97.2383 14.1745 97.1394 14.0684 97.0245 13.9662C96.6049 13.5575 95.5636 13.7618 94.9342 13.5575C94.1978 13.3414 93.2516 13.5693 92.9388 12.8384C94.0948 12.0249 95.6626 12.2135 97.0206 11.8992C97.5471 11.7066 98.0697 11.4983 98.6042 11.0739C99.3248 10.3587 100.493 9.64351 100.592 8.71217L99.9542 8.60214C98.917 8.91652 97.9668 9.33699 97.0206 9.6553C95.6587 10.2723 94.3047 10.8814 93.0457 11.6044L92.7329 11.5062C92.7329 10.5866 93.2516 9.96575 93.5722 9.24661C93.4574 9.03834 93.2516 9.24661 93.1526 9.14051C91.5888 10.064 89.7003 10.6849 88.1365 11.518C86.7904 12.1389 85.5354 12.9602 84.4941 14.2963V14.1941L85.1117 10.5002C85.1117 10.0954 84.8029 9.98539 84.4941 9.98539L81.3784 12.5554L80.8637 13.0741C79.0979 14.705 79.4147 17.161 78.5833 19.2123C78.0567 20.6349 76.4058 21.8806 75.1547 22.8945C75.0478 21.9828 75.6813 20.9453 76.093 20.1358C76.287 19.4206 77.1224 18.9097 76.5998 18.1867C76.287 18.0924 75.8713 18.1867 75.6773 18.2967C74.6321 19.0041 73.8166 19.7271 72.9812 20.631C71.936 21.7627 71.0136 23.0792 70.4039 24.4074C69.9723 25.9361 69.6081 27.9441 68.1551 28.8126C68.4243 28.396 68.6856 27.9441 68.9153 27.4569L68.8559 27.2368C68.2026 27.504 67.5771 27.4804 66.9357 27.4215C67.6325 26.3212 68.171 25.158 68.3135 23.8848C69.1528 24.0419 69.8298 23.5311 70.4395 22.8866C71.453 21.8138 72.2884 20.2891 73.2861 19.5385C73.4009 19.3184 73.5276 19.0984 73.4009 18.9923C72.4546 18.7683 71.3897 18.7683 70.4395 18.8783C70.388 18.8783 70.2693 18.8783 70.2138 18.9923L69.9723 18.7683C70.1544 18.4539 70.2693 18.1238 70.4395 17.7976C70.9185 17.1492 71.453 16.603 71.9914 16.0646C72.6368 14.7521 73.4642 15.6167 74.2996 15.9389H74.5925C76.4335 16.3829 77.8588 14.6382 79.3513 13.2195C79.4067 13.2195 79.4067 13.1134 79.4622 13.1134C79.4622 12.8934 79.4067 12.7951 79.3513 12.6812C79.1059 12.245 78.508 12.4572 78.1596 12.245C77.74 12.0171 77.2095 12.245 77.0313 11.4905C77.6806 10.6102 78.5753 10.8303 79.3513 10.4963C79.6443 10.288 79.9373 10.0601 80.2461 9.62386C80.6618 8.8615 81.3071 8.09521 81.3744 7.11671L81.0181 7.00668C80.4203 7.33285 79.8818 7.76904 79.3553 8.10307C78.5793 8.75933 77.8033 9.40773 77.0907 10.1819L76.9125 10.0718C76.9125 9.10121 77.2134 8.43316 77.3916 7.68259C77.3282 7.4586 77.2134 7.68259 77.154 7.57256C76.2593 8.54712 75.1983 9.20731 74.3075 10.0718C73.5355 10.7281 72.8228 11.5966 72.229 13.027V12.917L72.5774 8.99511C72.5774 8.55891 72.4111 8.44495 72.229 8.45281L70.4474 11.1761L70.1624 11.7145C69.1528 13.4632 69.331 16.0686 68.8598 18.2417C68.5589 19.7586 67.6127 21.0554 66.9041 22.1439C66.8486 21.1654 67.197 20.0847 67.4425 19.2123C67.5573 18.4539 68.0245 17.9116 67.7236 17.1492C67.5573 17.0353 67.3158 17.1492 67.197 17.2593C66.619 18.0138 66.14 18.7722 65.6688 19.7586C65.0789 20.9414 64.5484 22.3561 64.1881 23.7669C63.8952 25.716 63.6576 28.4314 62.3076 28.8519C62.0107 28.9619 61.7217 29.6103 61.3653 29.1741C62.1374 27.335 62.8975 25.382 63.0163 23.1224H62.7154L60.72 26.6866L60.6567 26.7849C60.2845 27.3075 59.9559 28.0267 59.6154 28.6986C59.081 28.5257 58.4752 29.2213 57.9526 29.4767C57.8141 29.6143 57.6755 29.7164 57.533 29.7911C57.7309 29.4138 58.1625 29.0405 58.1941 28.5179C57.8418 27.8655 57.434 28.8322 57.0698 29.1623C56.4324 30.353 55.7237 29.1623 55.1378 28.6043C54.9042 28.4039 54.7379 28.0856 54.5518 28.4039C54.5716 28.6711 54.6745 28.8873 54.7854 29.0798C54.7141 29.0405 54.6389 29.0012 54.5716 28.9659C54.1599 28.7615 53.8511 28.4589 53.5502 28.7615C53.6452 29.5317 55.0309 29.85 54.6429 30.4906C54.5399 30.4709 54.4251 30.4316 54.3143 30.3491C53.5581 29.3706 52.7346 28.1878 51.9705 26.887C51.3846 25.7946 50.8065 24.7139 50.2127 23.535C50.1058 23.4289 49.8049 23.2128 49.7495 23.6411C49.8643 25.6924 50.6284 27.2014 51.151 28.9344L51.0916 29.0484C51.0678 29.0327 51.0441 29.013 51.0164 28.9973C50.4898 28.5768 49.9712 28.1367 49.4605 27.6769C49.2902 27.449 49.1319 27.1857 48.9973 26.8713C48.5222 24.8161 48.2292 22.6626 47.3622 20.9335C47.2394 20.7213 47.1325 20.3952 46.9465 20.183C46.4912 19.3184 46.0755 18.56 45.4895 18.45C45.7825 19.7389 46.0715 21.1575 46.3091 22.4465L46.1863 22.6626C45.3708 21.688 44.5552 20.6152 43.9138 19.2084L43.6723 16.4105C43.5654 15.1176 43.1537 13.9308 42.6271 12.8541C41.9897 11.5573 41.1742 10.5827 40.4734 9.73782H40.2477C40.711 11.6673 40.9485 13.9465 41.289 15.9743C40.4734 15.1215 40.1884 13.5103 39.6103 12.3236C39.258 11.5769 38.9135 11.0346 38.5058 10.7124C37.5754 9.85964 36.5262 9.64351 35.5998 8.67287C35.0812 8.88508 35.8374 9.64351 35.5998 10.2919C34.9664 9.95789 34.325 9.10121 33.6916 8.45281C33.5807 8.35457 33.5094 8.24061 33.3946 8.24061C33.3511 7.92623 33.1096 8.45281 33.1096 7.92623C32.4128 7.39965 31.7199 7.07349 30.9004 6.97131C30.849 6.97131 30.8014 7.08528 30.8014 7.17959C31.6685 8.78684 32.7097 9.87143 33.6916 11.1525C33.743 11.2586 33.8618 11.3726 33.9212 11.5848C34.6813 12.1153 35.8413 10.9364 36.2333 12.4336C35.5998 12.972 34.9664 13.4121 34.2102 13.5182C34.0399 13.5182 33.7984 13.5182 33.6916 13.6243C33.5807 13.7265 33.458 13.8365 33.3946 14.0605C33.5094 14.1587 33.5807 14.2727 33.6916 14.3788C35.0812 15.8839 36.5856 17.2711 38.387 16.7288H38.5058C39.2026 16.5166 39.7806 15.8799 40.4734 15.9743L42.6271 18.784L42.9874 19.2123C43.1576 19.4245 43.3318 19.7428 43.2725 19.9629C43.0428 20.0769 42.8093 20.0769 42.6311 20.0769C42.057 19.9629 41.4671 19.7428 40.7664 19.8607C40.5368 19.8607 40.3032 19.9629 40.1369 20.2812C40.4219 20.8078 40.711 21.2833 41.0158 21.7391C40.8179 21.523 40.612 21.2361 40.3032 21.0318C39.5034 20.2223 38.7987 19.511 37.7733 19.4088C38.2801 20.6192 38.7987 21.9474 39.1907 23.142L38.9967 23.3503C37.5754 22.4465 36.1541 21.4326 35.0416 20.124L34.6457 17.4833C34.4279 16.2808 33.7272 15.1765 32.8245 14.1587C31.7081 12.9523 30.2947 12.0406 29.0793 11.2429H28.6913C29.4989 13.0702 29.8988 15.1805 30.5085 17.0903C29.0793 16.2965 28.5923 14.7796 27.5788 13.6636C26.9651 12.9641 26.3713 12.4611 25.6705 12.1664C24.0592 11.3647 22.2499 11.1643 20.6465 10.2683C19.7398 10.4609 21.0503 11.18 20.6465 11.7695C19.5498 11.4669 18.4452 10.6692 17.3327 10.064C17.1387 9.96575 17.0398 9.8675 16.8418 9.87143C16.7389 9.56492 16.339 10.064 16.339 9.56492C15.1473 9.06584 13.9438 8.77505 12.5462 8.68073C12.4433 8.68073 12.3523 8.77505 12.3523 8.87329C13.8527 10.3823 15.6422 11.3883 17.3367 12.5751C17.4436 12.6772 17.6455 12.7755 17.7366 12.9798C19.047 13.4828 21.0543 12.3747 21.751 13.7815C20.6504 14.2884 19.5498 14.6853 18.2394 14.7914C17.9424 14.7914 17.5426 14.7914 17.3327 14.8857C17.1387 14.9879 16.9487 15.1019 16.8418 15.2944C17.0398 15.3966 17.1427 15.4909 17.3327 15.5931C19.7438 16.996 22.3528 18.3046 25.4686 17.8016H25.6705C26.878 17.6169 27.8915 16.996 29.0793 17.1021L32.8245 19.7271L33.4303 20.1319C33.7272 20.3362 34.032 20.631 33.9291 20.8471C33.5332 20.9375 33.1175 20.9375 32.8245 20.9375C31.811 20.8471 30.8094 20.631 29.586 20.7371C29.1861 20.7371 28.7784 20.8392 28.4775 21.134C29.7919 22.4504 31.2013 23.5547 32.8245 24.2659C33.9291 24.6786 35.1445 24.8868 36.4669 24.8868C38.3791 24.2777 39.8043 25.2994 41.0237 26.5059C41.5305 27.0207 42.0372 27.5315 42.544 28.0267C42.544 28.2349 42.346 28.2349 42.2471 28.2349C41.8353 28.2349 41.4236 28.1249 41.0237 28.1249C39.5034 28.1092 37.8723 28.4353 36.3718 28.4196L36.0551 28.6161C37.516 29.5435 38.8977 30.5377 40.5011 30.9386H0.969971V32.1921H111.97V30.9386V30.9268Z" fill="white"></path></svg> 